<?xml version="1.0" standalone="no"?>
<!DOCTYPE svg PUBLIC "-//W3C//DTD SVG 20010904//EN"
 "http://www.w3.org/TR/2001/REC-SVG-20010904/DTD/svg10.dtd">
<svg version="1.0" xmlns="http://www.w3.org/2000/svg"
 width="512.000000pt" height="512.000000pt" viewBox="0 0 512.000000 512.000000"
 preserveAspectRatio="xMidYMid meet">
<metadata>
Created by potrace 1.11, written by Peter Selinger 2001-2013
</metadata>
<g transform="translate(0.000000,512.000000) scale(0.100000,-0.100000)"
fill="#000000" stroke="none">
<path d="M3565 5101 c-127 -32 -265 -112 -338 -196 -132 -152 -193 -359 -162
-550 11 -66 52 -175 90 -236 19 -31 35 -59 35 -61 0 -4 -553 -559 -575 -577
-2 -2 -30 17 -62 41 -168 128 -373 210 -583 233 -70 8 -203 7 -255 0 -291 -45
-498 -146 -691 -339 -178 -178 -285 -385 -328 -636 -19 -106 -14 -326 9 -425
9 -38 18 -82 22 -98 3 -15 10 -30 14 -33 5 -3 9 -13 9 -22 0 -32 99 -219 158
-298 183 -245 464 -420 737 -459 22 -3 52 -8 66 -11 37 -7 215 -7 274 1 194
24 408 110 554 221 l74 56 324 -324 325 -325 -28 -44 c-77 -120 -106 -222
-106 -369 0 -156 43 -278 139 -397 100 -124 208 -193 363 -233 105 -27 263
-20 359 15 208 76 336 203 416 410 16 42 32 132 34 196 5 131 -36 272 -112
384 -202 300 -611 380 -910 179 l-39 -25 -324 323 -324 323 60 84 c198 277
265 599 195 942 -26 131 -109 313 -197 430 l-59 80 290 290 c195 195 295 288
303 283 7 -4 31 -19 53 -34 172 -114 437 -126 629 -29 80 41 119 70 186 140
120 124 177 266 178 442 1 195 -57 336 -193 472 -64 64 -99 90 -165 122 -47
22 -107 46 -135 53 -82 20 -230 21 -310 1z"/>
</g>
</svg>
